<svg width="29" height="29" viewBox="0 0 29 29" fill="none" xmlns="http://www.w3.org/2000/svg">
<path fill-rule="evenodd" clip-rule="evenodd" d="M17.3757 22.3044C16.3916 22.6932 15.3192 22.9069 14.1968 22.9069C9.41706 22.9069 5.54229 19.0321 5.54229 14.2523C5.54229 9.47255 9.41706 5.59777 14.1968 5.59777C18.9766 5.59777 22.8514 9.47255 22.8514 14.2523C22.8514 16.0476 22.3047 17.7153 21.3688 19.0979L17.3825 15.1116L13.7827 18.7114L17.3757 22.3044ZM28.1968 14.2523C28.1968 21.9843 21.9288 28.2523 14.1968 28.2523C6.46485 28.2523 0.196838 21.9843 0.196838 14.2523C0.196838 6.52033 6.46485 0.252319 14.1968 0.252319C21.9288 0.252319 28.1968 6.52033 28.1968 14.2523Z" fill="white"/>
</svg>
